<?xml version="1.0" encoding="iso-8859-1"?>
<!-- Generator: Adobe Illustrator 18.0.0, SVG Export Plug-In . SVG Version: 6.00 Build 0)  -->
<!DOCTYPE svg PUBLIC "-//W3C//DTD SVG 1.1//EN" "http://www.w3.org/Graphics/SVG/1.1/DTD/svg11.dtd">
<svg version="1.1" id="Capa_1" xmlns="http://www.w3.org/2000/svg" xmlns:xlink="http://www.w3.org/1999/xlink" x="0px" y="0px"
	 viewBox="0 0 490 490" style="enable-background:new 0 0 490 490;" xml:space="preserve">
<g>
	<g>
		<path d="M164.971,490c-37.376,0-67.782-30.407-67.782-67.78c0-37.375,30.406-67.781,67.782-67.781
			c37.373,0,67.777,30.406,67.777,67.781C232.748,459.593,202.344,490,164.971,490z M164.971,384.79
			c-20.641,0-37.431,16.79-37.431,37.43c0,20.638,16.79,37.429,37.431,37.429c20.637,0,37.427-16.79,37.427-37.429
			C202.397,401.58,185.607,384.79,164.971,384.79z"/>
	</g>
	<g>
		<path d="M387.832,404.548H254.585c-0.596,0-1.161,0.264-1.547,0.721c-0.386,0.457-0.546,1.06-0.445,1.649
			c0.878,5.038,1.322,10.185,1.322,15.301c0,5.115-0.447,10.264-1.322,15.302c-0.101,0.587,0.06,1.191,0.445,1.649
			c0.386,0.456,0.951,0.72,1.547,0.72c33.315,0,133.247,0,133.247,0c9.747,0,17.674-7.927,17.674-17.671
			C405.506,412.475,397.579,404.548,387.832,404.548z"/>
		<path d="M174.388,51.223L97.379,2.72C94.553,0.941,91.302,0,87.976,0c-6.117,0-11.712,3.086-14.969,8.255
			c-2.515,3.994-3.325,8.729-2.278,13.332c1.045,4.605,3.821,8.525,7.813,11.04l68.756,43.303v256.673
			c0,0.598,0.264,1.164,0.722,1.549c0.455,0.383,1.058,0.548,1.649,0.443c10.081-1.753,20.52-1.753,30.603,0
			c0.734,0.109,1.281-0.135,1.647-0.443c0.457-0.385,0.723-0.951,0.723-1.549V66.175C182.642,60.068,179.555,54.479,174.388,51.223z
			"/>
	</g>
	<path d="M396.548,166.154h-60.652v32.583c0,2.82-2.289,5.109-5.111,5.109h-26.402c-2.822,0-5.106-2.289-5.106-5.109v-32.583h-60.65
		c-12.779,0-23.175,10.396-23.175,23.172v157.921c0,0.201,0.012,0.397,0.024,0.595l0.015,0.239c0.023,0.626,0.339,1.207,0.851,1.571
		c7.782,5.524,14.607,12.229,20.274,19.926c0.37,0.502,1.031,0.81,1.653,0.827c0.117,0.009,0.235,0.016,0.358,0.016h157.923
		c12.775,0,23.17-10.394,23.17-23.173V189.327C419.718,176.55,409.323,166.154,396.548,166.154z M346.4,309.926
		c-1.098,1.214-2.615,1.832-4.132,1.832c-1.331,0-2.663-0.475-3.727-1.438c-0.995-0.899-3.973-3.591-3.973-3.591v24.886
		c0,3.073-2.49,5.564-5.559,5.564c-3.075,0-5.566-2.49-5.566-5.564v-24.886c0,0-2.976,2.692-3.969,3.591
		c-1.065,0.962-2.398,1.438-3.732,1.438c-1.517,0-3.028-0.618-4.13-1.832c-2.06-2.278-1.886-5.797,0.395-7.86
		c0,0,8.529-7.63,12.693-11.479c1.182-1.094,2.569-2.044,4.308-2.044c1.732,0,3.122,0.951,4.308,2.044
		c4.158,3.85,12.688,11.479,12.688,11.479C348.285,304.129,348.459,307.648,346.4,309.926z M397.74,309.926
		c-1.097,1.214-2.607,1.832-4.124,1.832c-1.333,0-2.67-0.475-3.732-1.438c-0.991-0.898-3.972-3.591-3.972-3.591v24.886
		c0,3.073-2.492,5.564-5.563,5.564c-3.072,0-5.565-2.49-5.565-5.564v-24.886c0,0-2.977,2.692-3.968,3.591
		c-1.065,0.962-2.401,1.438-3.733,1.438c-1.517,0-3.029-0.618-4.13-1.832c-2.061-2.278-1.882-5.797,0.395-7.86
		c0,0,8.529-7.63,12.692-11.479c1.182-1.094,2.571-2.044,4.308-2.044c1.734,0,3.121,0.951,4.308,2.044
		c4.165,3.85,12.69,11.479,12.69,11.479C399.626,304.129,399.805,307.648,397.74,309.926z"/>
</g>
<g>
</g>
<g>
</g>
<g>
</g>
<g>
</g>
<g>
</g>
<g>
</g>
<g>
</g>
<g>
</g>
<g>
</g>
<g>
</g>
<g>
</g>
<g>
</g>
<g>
</g>
<g>
</g>
<g>
</g>
</svg>
